<svg
	xmlns="http://www.w3.org/2000/svg"
	viewBox="0 0 22.5 22.5"
	height="24" width="24"
>
	<path style="fill:#232629;stroke:none" d="M10.983 19.674l-3.085-.131c-.354-.189-.525-.35-.689-.648l-.162-.296-.036-1.342-.036-1.342-.144-.144c-.131-.131-.193-.146-.736-.177-.681-.038-.894-.113-1.244-.436-.382-.352-.477-.64-.565-1.708l-.28-3.997C3.919 7.593 4.524 6.009 5.82 4.7a6.27 6.27 0 0 1 3.425-1.799c.65-.113 3.39-.118 3.997-.008.844.155 1.353.333 2.08.728 1.459.792 2.556 2.209 3.028 3.908.138.498.152.633.153 1.484l-.039 1.432-.179 2.23c-.158 1.971-.2 2.13-.668 2.521-.363.303-.633.393-1.189.397-.918.006-.926.02-.927 1.667 0 1.171-.006 1.241-.129 1.504-.224.48-.765.869-1.275.916-.121.012-1.522.007-3.113-.008zm-1.543-1.831c.027-.735.032-.761.179-.908.211-.211.532-.211.744 0 .149.149.152.165.169.922l.018.77h.712.712v-.731c0-.821.037-.928.37-1.067.171-.071.21-.069.392.02.297.146.339.277.34 1.077l.001.702h.415c.426 0 .714-.081.843-.236.055-.067.072-.328.067-1.07-.006-1.048.056-1.685.191-1.946.155-.301.437-.565.769-.722.283-.134.399-.157.799-.157.522 0 .8-.112.851-.342.063-.283.382-4.633.381-5.194-.002-.788-.144-1.343-.559-2.176-.277-.557-.381-.701-.861-1.2-.791-.821-1.609-1.289-2.678-1.532-.409-.093-.676-.106-2.121-.102-1.594.005-1.672.009-2.179.146-.871.234-1.692.693-2.329 1.303-.834.798-1.438 2.006-1.504 3.004l-.045.485c-.011.052.002.387.027.744l.107 1.531.084 1.102.086 1.047.116.927c.089.168.394.257.883.258.57.001.895.139 1.265.535.388.417.431.622.431 2.051 0 1.532.011 1.55.854 1.529l.441-.012.028-.756zm1.405-3.069a.59.59 0 0 1-.316-.37c-.039-.159.169-1.164.273-1.324.116-.176.458-.273.663-.188.213.088.315.282.42.796.13.633.118.786-.072.976-.145.145-.195.161-.51.158-.192-.001-.398-.024-.459-.049zm-2.644-2.446c-.582-.193-.937-.493-1.188-1.003-.112-.228-.134-.355-.134-.769 0-.421.022-.543.146-.807.312-.666.871-1.003 1.672-1.008a1.33 1.33 0 0 1 .825.19c.636.319.967.876.966 1.625-.001.723-.357 1.318-.978 1.632-.402.203-.945.261-1.309.14zm5.261-.003c-.633-.141-1.016-.445-1.289-1.025-.426-.905-.038-1.988.861-2.403.455-.21 1.133-.227 1.541-.039.84.386 1.254 1.289 1.008 2.199-.179.662-.682 1.126-1.375 1.272-.39.082-.358.082-.747-.005z"/>
</svg>
