<?xml version="1.0" encoding="UTF-8"?>
<svg version="1.1"
	viewBox="0 0 32 32"
	xmlns="http://www.w3.org/2000/svg"
	xmlns:rdf="http://www.w3.org/1999/02/22-rdf-syntax-ns#"
	xmlns:cc="http://creativecommons.org/ns#"
	xmlns:dc="http://purl.org/dc/elements/1.1/"
>
	<metadata>
		<rdf:RDF>
			<cc:Work>
				<cc:license rdf:resource="http://creativecommons.org/licenses/by-nc-sa/4.0/" />
				<cc:license rdf:resource="http://www.gnu.org/licenses/old-licenses/gpl-2.0" />
				<dc:creator>axollyon</dc:creator>
			</cc:Work>
		</rdf:RDF>
	</metadata>
	
	<defs>
		<style type="text/css">
			.base-colour { color:#4d4d4d; }
		</style>
	</defs>
	
	<path d="M8.066 6.801L.908 13.959c1.2 2.82 2.795 5.456 4.738 7.827l-4.7 4.7a3.23 3.23 0 1 0 4.569 4.569l4.7-4.7c2.371 1.942 5.006 3.538 7.826 4.738l7.157-7.157c0 0 0 0-17.133-17.133zm11.055 13.93c.284.284.443.669.443 1.071s-.16.787-.444 1.071c-.591.591-1.55.591-2.141 0-.284-.284-.444-.669-.444-1.071s.16-.787.443-1.071.669-.444 1.071-.444.787.16 1.071.444zm-9.637-9.637l1.428 1.428-1.428 1.428 1.428 1.428-1.427 1.427-1.428-1.428-1.428 1.428-1.428-1.428 1.428-1.428-1.428-1.428 1.427-1.427 1.428 1.428zM19.3 25.193c.591.591.591 1.55 0 2.141-.284.284-.669.444-1.071.444s-.787-.16-1.071-.443-.444-.669-.444-1.071.16-.787.444-1.071.669-.444 1.071-.443.787.16 1.071.444z" fill="currentColor" class="base-colour"/>
	<path d="M17.597 2.981C15.363 1.431 13.319.396 11.707 0c-.597 2.119-1.692 4.852-3.642 6.801l2.856 2.856z" fill="#ff403c"/>
	<path d="M29.019 14.403l-6.676 6.676 2.856 2.856c1.949-1.949 4.683-3.044 6.802-3.642-.397-1.612-1.431-3.656-2.981-5.89z" fill="#bd3feb"/>
	<path d="M26.529 11.181l-7.042 7.042 2.856 2.856c2.582-2.582 6.062-4.145 7.865-4.835-.953-1.607-2.208-3.334-3.678-5.062z" fill="#4f96ec"/>
	<path d="M20.819 5.47C19.091 4 17.363 2.745 15.756 1.792c-.69 1.803-2.253 5.282-4.835 7.865l2.856 2.856z" fill="#feb120"/>
	<path d="M23.79 8.21l-7.158 7.158 2.855 2.855c3.134-3.134 6.878-5.469 7.858-6.058-1.075-1.339-2.277-2.677-3.556-3.956z" fill="#60e74b"/>
	<path d="M23.69 8.11a49.22 49.22 0 0 0-3.854-3.457c-.587.978-2.923 4.724-6.058 7.86l2.856 2.856L23.79 8.21z" fill="#ffff5f"/>
</svg>
